Coordinates
version=1
nRows=8
nColumns=36
inDegrees=yes

Units are S.I. units (second, meters, Newtons, ...)
If the header above contains a line with 'inDegrees', this indicates whether rotational values are in degrees (yes) or radians (no).

endheader
time	pelvis_tilt	pelvis_list	pelvis_rotation	pelvis_tx	pelvis_ty	pelvis_tz	hip_flexion_r	hip_adduction_r	hip_rotation_r	knee_angle_r	knee_angle_r_beta	ankle_angle_r	subtalar_angle_r	mtp_angle_r	hip_flexion_l	hip_adduction_l	hip_rotation_l	knee_angle_l	knee_angle_l_beta	ankle_angle_l	subtalar_angle_l	mtp_angle_l	lumbar_extension	lumbar_bending	lumbar_rotation	arm_flex_r	arm_add_r	arm_rot_r	elbow_flex_r	pro_sup_r	arm_flex_l	arm_add_l	arm_rot_l	elbow_flex_l	pro_sup_l
      1.64000000	    -18.26994078	     -0.36375574	      0.70087368	     -0.70599586	      1.38843653	     -0.55165971	     41.10831572	      1.29141122	      3.04268401	     67.32417986	      1.17502860	    -17.59672548	    -19.18923148	     -4.69426419	     39.57519434	     -1.92775003	      4.32245453	     59.23477555	      1.03384187	    -10.92836870	     -7.34254917	     -4.69426419	    -17.07558616	      0.66922509	     -6.20432694	     42.84973886	    -24.74712596	     12.97776006	     91.32094752	    112.03170772	     22.57017624	    -16.85316381	      8.39631171	    112.40926039	     96.16777172
      1.65000000	    -18.01640146	     -0.34466882	      0.39147893	     -0.69769417	      1.38959901	     -0.55089697	     42.85611328	      1.26202833	      2.86345280	     68.71547953	      1.19931136	    -17.14566841	    -19.86123271	     -4.74576923	     40.32610709	     -2.10261463	      4.23079179	     59.26600647	      1.03438695	    -10.82252021	     -7.34806772	     -4.74576923	    -18.16336602	      0.41678528	     -5.99047366	     41.11161564	    -25.68261061	     13.08360361	     87.14050527	    112.10757067	     20.64141424	    -16.15068619	      7.08298011	    109.51305830	     95.79672029
      1.66000000	    -17.82503795	     -0.42060875	      0.16388588	     -0.68920171	      1.38995844	     -0.55035280	     44.43264067	      1.23768663	      2.54114044	     69.40951712	      1.21142461	    -16.89034070	    -20.67108589	     -4.93135060	     41.01397803	     -2.32070049	      4.23544336	     58.91014665	      1.02817602	    -10.81148095	     -7.28709876	     -4.93135060	    -19.15979485	      0.38409062	     -6.55981608	     40.45983718	    -26.09632856	     14.83038069	     81.78757194	    113.23732195	     18.10939611	    -15.60335094	      4.70285463	    107.07318068	     95.44191025
      1.67000000	    -17.74421102	     -0.40383524	     -0.06129235	     -0.68035322	      1.38945581	     -0.54976303	     45.89930390	      1.11783462	      2.25833102	     69.49532890	      1.21292230	    -16.48106985	    -21.23003330	     -4.97464792	     41.61564586	     -2.46603620	      4.16534967	     58.12940489	      1.01454951	    -10.91766426	     -7.22570737	     -4.97464792	    -19.94553512	      0.12632057	     -6.25382583	     38.73240919	    -27.09343576	     15.40509613	     77.26328928	    113.30859691	     16.58669526	    -14.76140558	      3.52095501	    103.47656322	     94.95920354
      1.68000000	    -17.73979850	     -0.35030619	     -0.28191257	     -0.67111996	      1.38801342	     -0.54906538	     47.21708192	      0.99510636	      2.04825917	     69.00820887	      1.20442046	    -16.27465575	    -21.79503564	     -5.02599792	     42.11992162	     -2.58235532	      4.11734712	     57.00413210	      0.99490979	    -11.14435769	     -7.23699348	     -5.02599792	    -20.52609298	     -0.17618267	     -6.12421800	     37.22940211	    -27.86177452	     16.41264791	     72.18659754	    113.46988416	     14.99894116	    -14.07591597	      2.21422650	     99.82693371	     94.42532415
      1.69000000	    -17.75644160	     -0.28402506	     -0.46805053	     -0.66157160	      1.38555275	     -0.54840682	     48.30944315	      0.83264629	      1.84642908	     67.95606442	      1.18605707	    -16.30417130	    -22.39118431	     -5.23109795	     42.51263634	     -2.66945525	      4.08581506	     55.61529035	      0.97066993	    -11.51502351	     -7.44615934	     -5.23109795	    -21.01778845	     -0.38554112	     -6.94035508	     37.04809157	    -27.98544399	     19.48970003	     65.88920212	    114.02311568	     12.56431128	    -13.51291019	     -0.42923090	     97.00751850	     93.50040503
      1.70000000	    -17.85363181	     -0.25129840	     -0.65844153	     -0.65163515	      1.38201008	     -0.54752610	     49.25535968	      0.80860649	      1.82266408	     66.43832283	      1.15956748	    -16.07599694	    -22.35934391	     -5.28320776	     42.84886818	     -2.83384292	      4.06955495	     53.98749098	      0.94225947	    -11.65995681	     -7.25565005	     -5.28320776	    -21.31636862	     -0.71421625	     -6.48781901	     35.13028423	    -29.04213855	     20.78489390	     61.23900973	    113.82438882	     11.37863789	    -12.74461876	     -1.38680643	     93.13870207	     92.79302277
      1.71000000	    -17.85662900	     -0.22997058	     -0.87658971	     -0.64128048	      1.37757574	     -0.54664639	     49.83867457	      0.82836901	      1.83766875	     64.40065476	      1.12400347	    -15.98370160	    -22.23932579	     -5.32070078	     43.00118921	     -3.12218410	      3.82723313	     52.21882477	      0.91139042	    -11.88411867	     -7.00683688	     -5.32070078	    -21.66327087	     -1.02451543	     -6.00135126	     33.12605555	    -30.23229885	     22.53652231	     57.05536962	    113.68769186	     10.15677626	    -11.95573756	     -2.50661131	     89.59275540	     92.11574655
